<svg width="48" height="36" viewBox="0 0 48 36" fill="none" xmlns="http://www.w3.org/2000/svg">
<path fill-rule="evenodd" clip-rule="evenodd" d="M39.16 18.4714L36.9752 8.67744C37.5648 8.59823 38.0848 8.30063 38.4507 7.86967C38.8824 8.13747 39.3918 8.293 39.9375 8.293H41.8125C42.3303 8.293 42.75 7.87657 42.75 7.36276V3.64183C42.75 3.12803 42.3303 2.7116 41.8125 2.7116H39.9375C39.3757 2.7116 38.8521 2.87657 38.4122 3.15964C37.983 2.67817 37.3564 2.37367 36.6592 2.37367H31.125C30.1307 2.37367 29.2797 2.99249 28.9409 3.86204H26.7188C25.3748 3.86204 24.2812 4.94707 24.2812 6.28064C24.2812 7.61422 25.3748 8.69925 26.7188 8.69925H31.5443V10.5739C31.5443 11.0877 31.964 11.5041 32.4818 11.5041C32.9996 11.5041 33.4193 11.0877 33.4193 10.5739V8.69925H35.0599L37.4132 19.2498L32.9594 27.1211C32.4727 27.978 31.5549 28.5103 30.5636 28.5103H19.4451C18.9796 24.6371 15.6515 21.6237 11.625 21.6237C9.84338 21.6237 8.16248 22.1996 6.76392 23.289L6.75842 23.2934C5.09326 24.5928 4.04663 26.4576 3.80273 28.5103H1.8772C1.99951 21.8228 7.52014 16.4202 14.2881 16.4202H20.9385C21.4633 16.4202 21.8906 16.8442 21.8906 17.3653V25.7196C21.8906 26.2334 22.3103 26.6498 22.8281 26.6498H27.8167C29.8517 26.6498 31.7271 25.5517 32.7107 23.7846C33.1659 22.9671 33.4072 22.0412 33.408 21.1077L33.4127 18.0172C33.4135 17.5034 32.9941 17.0862 32.4763 17.0855H32.4752C31.9581 17.0855 31.5385 17.5012 31.5377 18.0143L31.533 21.1055C31.5326 21.7261 31.3722 22.3417 31.0697 22.8849C30.4156 24.0593 29.1691 24.789 27.8167 24.789H23.7656V17.3649C23.7656 16.8886 23.6448 16.4394 23.4327 16.0459C24.275 15.563 24.8434 14.6604 24.8434 13.628C24.8434 12.0891 23.5814 10.8373 22.0309 10.8373H18.609C18.2802 10.8373 17.9648 10.894 17.6715 10.9972V2.83733C17.6715 1.29845 16.4095 0.0466309 14.859 0.0466309H8.81104C4.42676 0.0466309 0.780762 3.24067 0.110596 7.40637C0.0823974 7.49503 0.0670166 7.58915 0.0670166 7.68689C0.0670166 7.68985 0.0672057 7.69271 0.0673917 7.69552C0.0675718 7.69825 0.067749 7.70093 0.067749 7.70361C0.0230713 8.05971 0 8.42199 0 8.78936V13.6284C0 15.0256 1.04041 16.1862 2.39282 16.3878L4.46887 18.4478C1.71826 21.0336 0 24.6898 0 28.7374V29.4405C0 29.9543 0.419678 30.3708 0.9375 30.3708H6.20618C6.19409 30.4307 6.1875 30.4932 6.1875 30.5568C6.1875 31.9067 6.69104 33.1418 7.52014 34.0888H0.9375C0.419678 34.0888 0 34.5056 0 35.019C0 35.5328 0.419678 35.9492 0.9375 35.9492H11.5166L11.5478 35.9503L11.548 35.9503C11.5737 35.9512 11.5992 35.9522 11.625 35.9522C14.6232 35.9522 17.0625 33.5317 17.0625 30.5568C17.0625 30.4932 17.0559 30.4307 17.0438 30.3708H30.5636C32.0398 30.3708 33.4193 29.6687 34.2839 28.5074H35.4712C35.2042 29.152 35.0625 29.8468 35.0625 30.5568C35.0625 31.9067 35.566 33.1418 36.3951 34.0888H24.2373C23.7195 34.0888 23.2998 34.5056 23.2998 35.019C23.2998 35.5328 23.7195 35.9492 24.2373 35.9492H40.3916L40.4228 35.9503C40.4485 35.9512 40.4742 35.9522 40.5 35.9522C43.4982 35.9522 45.9375 33.5317 45.9375 30.5568C45.9375 29.8468 45.7958 29.152 45.5288 28.5074H47.0625C47.5803 28.5074 48 28.091 48 27.5772C48 22.6669 44.0651 18.6513 39.16 18.4714ZM18.609 12.6982H22.0309C22.5476 12.6982 22.9684 13.1153 22.9684 13.6284C22.9684 14.1411 22.5476 14.5586 22.0309 14.5586H18.609C18.0919 14.5586 17.6715 14.1411 17.6715 13.6284C17.6715 13.1153 18.0919 12.6982 18.609 12.6982ZM1.8776 8.67497C1.8763 8.71308 1.875 8.75114 1.875 8.78936V13.6284C1.875 14.1411 2.29541 14.5586 2.81213 14.5586H2.81287H14.8586C15.3757 14.5586 15.7961 14.1411 15.7961 13.6284V2.83769C15.7961 2.32461 15.3757 1.90746 14.8586 1.90746H8.81104C5.69934 1.90746 3.06006 3.95106 2.18408 6.75702H12.1381C12.6559 6.75702 13.0756 7.17345 13.0756 7.68726C13.0756 8.20106 12.6559 8.61749 12.1381 8.61749H1.87939C1.8789 8.63668 1.87825 8.65583 1.8776 8.67497ZM5.07605 16.4191H7.22131C6.77087 16.6742 6.33618 16.9536 5.91797 17.2545L5.07605 16.4191ZM11.6613 34.0906C13.6088 34.0713 15.1875 32.4939 15.1875 30.5568C15.1875 30.4932 15.1941 30.4307 15.2062 30.3708H8.04382C8.05591 30.4307 8.0625 30.4932 8.0625 30.5568C8.0625 32.47 9.60242 34.0317 11.517 34.0888H11.625C11.6371 34.0888 11.6492 34.0902 11.6613 34.0906ZM5.69458 28.5103C5.92676 27.0325 6.70898 25.6974 7.91711 24.7559C7.92004 24.7541 7.92261 24.7516 7.92554 24.7498C8.98975 23.922 10.2689 23.4841 11.625 23.4841C14.6162 23.4841 17.1031 25.6662 17.5547 28.5103H5.69458ZM40.875 4.57207H39.9375C39.4204 4.57207 39 4.98958 39 5.5023C39 6.01538 39.4204 6.43253 39.9375 6.43253H40.875V4.57207ZM26.1562 6.28064C26.1562 5.97287 26.4086 5.7225 26.7188 5.7225H28.7842V6.37657C28.7842 6.535 28.8003 6.68944 28.8307 6.83878H26.7188C26.4086 6.83878 26.1562 6.58842 26.1562 6.28064ZM31.125 6.83878H32.4818H36.6592C36.9159 6.83878 37.125 6.63166 37.125 6.37657V4.69634C37.125 4.44162 36.9159 4.23413 36.6592 4.23413H31.125C30.8683 4.23413 30.6592 4.44162 30.6592 4.69634V6.37657C30.6592 6.63166 30.8683 6.83878 31.125 6.83878ZM44.0625 30.5568C44.0625 32.4939 42.4838 34.0713 40.5363 34.0906L40.5308 34.0904L40.5207 34.0897C40.5138 34.0893 40.5069 34.0888 40.5 34.0888H40.392C38.4774 34.0317 36.9375 32.47 36.9375 30.5568C36.9375 29.8177 37.1697 29.1033 37.5974 28.5074H43.4026C43.8303 29.1033 44.0625 29.8177 44.0625 30.5568ZM38.9528 20.329L35.3778 26.6469H46.0649C45.6094 23.1298 42.6035 20.3955 38.9528 20.329ZM20.4873 34.0888C20.2405 34.0888 19.9988 34.1883 19.8245 34.3613C19.6501 34.5343 19.5498 34.7745 19.5498 35.019C19.5498 35.2636 19.6501 35.5038 19.8245 35.6767C19.9988 35.8497 20.2405 35.9492 20.4873 35.9492C20.7338 35.9492 20.9755 35.8497 21.1501 35.6767C21.3245 35.5038 21.4248 35.2647 21.4248 35.019C21.4248 34.7745 21.3245 34.5343 21.1501 34.3613C20.9755 34.1883 20.7338 34.0888 20.4873 34.0888ZM33.4193 14.2948C33.4193 14.8086 32.9996 15.225 32.4818 15.225C31.964 15.225 31.5425 14.8086 31.5425 14.2948C31.5425 13.781 31.9607 13.3646 32.4785 13.3646H32.4818C32.9996 13.3646 33.4193 13.781 33.4193 14.2948Z" fill="#ECBB9C"/>
</svg>
