<svg width="48" height="36" viewBox="0 0 48 36" fill="none" xmlns="http://www.w3.org/2000/svg">
<path fill-rule="evenodd" clip-rule="evenodd" d="M47.8731 18.5581C43.8753 11.4203 37.3031 7.0556 29.6 6.24677C25.7379 1.38163 13.6197 0.149121 13.0967 0.0983473C12.7559 0.0632824 12.4131 0.211303 12.2041 0.487989C11.9941 0.762711 11.9423 1.12692 12.0674 1.44933C13.2555 4.52532 14.4727 8.02405 14.7948 9.45545C12.5942 10.4598 10.6707 11.5278 9.43069 12.4178C6.74119 8.12625 1.251 8.07267 1.00003 8.07267C0.447281 8.07267 0 8.51879 0 9.07011C0 14.849 2.01956 17.7497 3.37013 19.0442C2.01956 20.3386 0 23.2392 0 29.0181C0 29.5694 0.447281 30.0156 1.00003 30.0156C1.251 30.0156 6.74128 29.962 9.43069 25.6704C11.0782 26.8529 13.9267 28.3482 17.0393 29.5912C16.3515 30.7009 16 32.4658 16 35.0025C16 35.5539 16.4473 36 17.0001 36C17.2974 36 24.0977 35.9412 27.4843 31.9789C36.0971 31.8129 43.5135 27.3138 47.8731 19.5301C48.042 19.2282 48.042 18.8601 47.8731 18.5581ZM14.5224 2.28313C17.8825 2.76824 23.3989 3.96176 26.5163 6.0981C23.6419 6.21012 19.9744 7.29405 16.6497 8.65419C16.207 6.90094 15.2248 4.16186 14.5224 2.28313ZM18.9784 30.3191C18.7985 30.4642 18.1567 31.1733 18.0234 33.9477C19.5678 33.8117 22.5249 33.3379 24.6942 31.8156C22.9014 31.5435 20.9271 31.0013 18.9784 30.3191ZM27 30.0156C21.1563 30.0156 11.6016 25.2302 9.83203 23.4243C9.64256 23.2305 9.38381 23.1243 9.11719 23.1243C9.05663 23.1243 8.99512 23.1302 8.93456 23.1409C8.60738 23.2013 8.331 23.4214 8.19919 23.7262C6.84956 26.8479 3.67575 27.7002 2.02631 27.9331C2.33878 21.6827 5.30466 20.0123 5.457 19.9314C5.78606 19.763 5.98922 19.423 5.99409 19.0539C5.99897 18.6808 5.78897 18.3331 5.45794 18.1578C5.32416 18.0868 2.34075 16.4279 2.02631 10.161C3.67472 10.4016 6.86025 11.2666 8.19919 14.362C8.331 14.6668 8.60738 14.8871 8.93456 14.9474C9.26466 15.0087 9.59963 14.9015 9.83203 14.6639C11.6016 12.8581 21.1563 8.07267 27 8.07267C34.8955 8.07267 41.7344 12.0633 45.8477 19.0441C41.7344 26.025 34.8955 30.0156 27 30.0156ZM31.834 11.6152C31.8155 11.6434 30 14.4545 30 19.0441C30 23.6756 31.8135 26.4429 31.832 26.47C32.1386 26.9288 32.0146 27.5473 31.5547 27.8531C31.3837 27.9662 31.1914 28.0207 31.001 28.0207C30.6778 28.0207 30.3604 27.8648 30.168 27.5765C30.0791 27.444 28 24.2727 28 19.0441C28 13.8155 30.0791 10.6441 30.168 10.5116C30.4727 10.0558 31.0918 9.93205 31.5508 10.234C32.0098 10.5379 32.1367 11.1554 31.834 11.6152ZM27.5508 10.2341C27.0908 9.93215 26.4736 10.0559 26.168 10.5117C26.0791 10.6441 24 13.8156 24 19.0441C24 21.8366 24.6035 24.0311 25.1104 25.3801C25.2607 25.7804 25.6417 26.0278 26.0469 26.0278C26.1632 26.0278 26.2822 26.0073 26.3976 25.9645C26.9152 25.7716 27.1769 25.197 26.9835 24.6807C26.5353 23.4856 26.0001 21.5375 26.0001 19.0441C26.0001 14.4545 27.8155 11.6434 27.8341 11.6152C28.1367 11.1555 28.0098 10.538 27.5508 10.2341ZM37.9999 16.0518C37.9999 17.1535 37.1045 18.0465 35.9999 18.0465C34.8954 18.0465 33.9999 17.1535 33.9999 16.0518C33.9999 14.9501 34.8954 14.057 35.9999 14.057C37.1045 14.057 37.9999 14.9501 37.9999 16.0518Z" fill="#ECBB9C"/>
</svg>
