<svg width="48" height="48" viewBox="0 0 48 48" fill="none" xmlns="http://www.w3.org/2000/svg">
<path fill-rule="evenodd" clip-rule="evenodd" d="M21.6 0H26.4V1.60003H24.8001V4.01521C35.9003 4.43708 44.8 13.599 44.7999 24.8H47.2C47.6424 24.8 48 25.1576 47.9999 25.5999C47.9999 28.5923 45.6391 31.045 42.6827 31.1929C42.7168 31.2422 42.7506 31.2951 42.7832 31.3496C43.612 32.7384 43.2296 34.5607 41.9122 35.4994L32.2137 43.5129C31.2137 44.3409 29.9481 44.7985 28.6489 44.8001H9.576V47.2C9.576 47.6424 9.21759 48 8.77603 48H0V46.4001H7.97597V34.4001H0V32.8H8.77603C8.96157 32.8 9.13243 32.8632 9.26819 32.9692L11.3939 31.1999H5.59997C2.51203 31.1999 0 28.6871 0 25.5999C0 25.1575 0.358406 24.8 0.799969 24.8H3.19997C3.20002 13.5991 12.1004 4.43706 23.2 4.01521V1.60003H21.6V0ZM3.99817 26.4H1.68075C2.052 28.2232 3.66797 29.6 5.59997 29.6H25.1443C25.184 29.5991 25.2235 29.5991 25.2629 29.6H42.4C44.332 29.6 45.948 28.2232 46.3192 26.4H44.0017L44 26.4H3.99994L3.99817 26.4ZM43.2 24.8C43.2 14.2135 34.5864 5.59997 24 5.59997C13.4136 5.59997 4.8 14.2135 4.8 24.8H43.2ZM27.7285 31.1999H37.1868L29.3439 36.8001H20C19.5592 36.8001 19.2 36.4417 19.2 36.0001C19.2 35.5585 19.5592 35.2001 20 35.2001H25.2C26.744 35.2001 28 33.9442 28 32.4001C28 32.3913 27.9992 32.3177 27.9984 32.3097C27.9857 31.9121 27.8898 31.537 27.7285 31.1999ZM25.2075 31.1999H14.7625L14.736 31.1999C14.1888 31.2047 13.6504 31.4032 13.2248 31.7575L9.6 34.7752V43.2H28.6479C29.5744 43.1984 30.4792 42.8721 31.1944 42.28L40.9392 34.2312C41.6272 33.7384 41.8152 32.848 41.4103 32.1703C41.3895 32.1359 41.3679 32.1023 41.3439 32.0695C41.1032 31.7335 40.7527 31.5159 40.352 31.4496C39.9503 31.3856 39.5496 31.4776 39.2199 31.7144L30.0664 38.2512C29.9288 38.348 29.7664 38.4 29.6 38.4H20C18.6768 38.4 17.6 37.3232 17.6 36C17.6 34.6768 18.6768 33.6 20 33.6H25.2C25.8616 33.6 26.4 33.0616 26.4 32.4C26.3788 31.7162 25.8501 31.2217 25.2075 31.1999ZM4.00003 40C2.67684 40 1.60003 41.0768 1.60003 42.4C1.60003 43.7232 2.67684 44.8 4.00003 44.8C5.32322 44.8 6.40003 43.7232 6.40003 42.4C6.40003 41.0768 5.32322 40 4.00003 40ZM4.00003 43.2C3.55922 43.2 3.20006 42.8416 3.20006 42.4C3.20006 41.9585 3.55922 41.6001 4.00003 41.6001C4.44084 41.6001 4.8 41.9585 4.8 42.4C4.8 42.8416 4.44084 43.2 4.00003 43.2ZM10.8416 13.1256C10.2824 13.7543 9.76406 14.4272 9.30084 15.1264L10.6344 16.0103C11.0569 15.3735 11.5288 14.7599 12.0376 14.1879L10.8416 13.1256ZM11.956 11.9776C15.2296 8.89997 19.5072 7.20244 24 7.2L24.0008 8.80003C19.9168 8.80237 16.0281 10.3447 13.0521 13.1432L11.956 11.9776Z" fill="#ECBB9C"/>
</svg>
